<svg height="48pt" viewBox="0 0 48 48" width="48pt" xmlns="http://www.w3.org/2000/svg" xmlns:xlink="http://www.w3.org/1999/xlink"><linearGradient id="a" gradientTransform="matrix(1.658 0 0 7.167 23.462 31.242)" gradientUnits="userSpaceOnUse" x1="0" x2="1" y1=".5" y2=".5"><stop offset="0" stop-color="#757f9a"/><stop offset=".98695652174" stop-color="#d7dde8"/></linearGradient><linearGradient id="b" gradientTransform="matrix(13.385 0 0 25.132 17.331 9.694)" gradientUnits="userSpaceOnUse" x1=".183361" x2=".902744" y1=".249178" y2=".903477"><stop offset=".02608695652" stop-color="#b3ffab"/><stop offset=".98695652174" stop-color="#12fff7"/></linearGradient><linearGradient id="c" gradientTransform="matrix(47.058 0 0 46.985 .495 .559)" gradientUnits="userSpaceOnUse" x1=".994118" x2=".000181" y1=".480156" y2=".452131"><stop offset="0" stop-color="#11998e"/><stop offset=".99130434783" stop-color="#38ef7d"/></linearGradient><path d="m24.099 31.242c-.082.271-.067.559-.108.837-.069.667-.12 1.338-.292 1.99-.063.276-.16.544-.237.816.187.362.248.762.289 1.16.086.463.107.936.144 1.404.03.234-.094.531.114.707.236.078.471.162.703.252-.03-.452-.076-.903-.063-1.357-.019-.429.052-.854.085-1.28.022-.207.022-.418.105-.612.063-.185.191-.342.28-.515-.137-.092-.266-.201-.385-.313-.103-.236-.235-.464-.319-.707-.204-.776-.327-1.581-.316-2.382z" fill="url(#a)"/><g fill-rule="evenodd"><path d="m24.024 26.571c.03-4.263.035-8.526 0-12.789.005-1.283.043-2.565 0-3.843.366.654.652 1.37 1.203 1.908 2.073 1.918 3.688 4.303 4.581 6.945.971 2.539 1.176 5.357.554 7.995-.617 2.634-2.036 5.092-4.099 6.924-.439.254-.999 1.291-1.483.667-.542-.841-.688-1.887-.756-2.857.077-1.532.005-3.065 0-4.6v4.6.311c-.074.75-.157 1.5-.324 2.237-.121.453-.197 1.184-.706.435-3.313-2.617-5.642-6.563-5.663-10.759.017-2.055.336-4.141 1.145-6.048.257-.826.659-1.588 1.102-2.332.634-1.282 1.636-2.347 2.649-3.361.617-.719 1.716-1.299 1.797-2.31v.245 3.843z" fill="url(#b)"/><path d="m25.631 43.272c-1.174.099-2.049 1.135-1.953 2.312.096 1.176 1.132 2.051 2.312 1.952 5.91-.492 11.426-3.205 15.429-7.594 3.993-4.389 6.187-10.131 6.133-16.067-.056-6.235-2.592-12.201-7.038-16.578-4.457-4.367-10.468-6.793-16.703-6.737s-12.201 2.592-16.578 7.038c-4.367 4.456-6.794 10.468-6.737 16.703.01 1.18.978 2.13 2.158 2.119 1.181-.01 2.13-.977 2.12-2.158-.047-5.101 1.941-10.018 5.513-13.665 3.582-3.637 8.461-5.713 13.563-5.759 5.101-.046 10.018 1.941 13.665 5.513 3.637 3.582 5.713 8.462 5.759 13.563.044 4.855-1.742 9.556-5.015 13.147-3.272 3.591-7.787 5.803-12.628 6.211zm-18.573-10.078c-.559-1.04-1.856-1.431-2.896-.873-1.04.559-1.431 1.856-.872 2.896 2.382 4.428 6.126 7.988 10.669 10.139 1.067.51 2.345.057 2.852-1.01.507-1.067.052-2.347-1.015-2.857-3.727-1.763-6.78-4.666-8.738-8.295z" fill="url(#c)"/></g></svg>